<?xml version="1.0" encoding="utf-8"?>
<!-- Generator: Adobe Illustrator 21.1.0, SVG Export Plug-In . SVG Version: 6.00 Build 0)  -->
<svg version="1.1" id="Livello_1" xmlns="http://www.w3.org/2000/svg" xmlns:xlink="http://www.w3.org/1999/xlink" x="0px" y="0px"
	 viewBox="0 0 163.9 47.1" style="enable-background:new 0 0 163.9 47.1;" xml:space="preserve">
<style type="text/css">
	.st0{enable-background:new    ;}
	.st1{fill:#5B5B5B;}
</style>
<g class="st0">
	<path class="st1" d="M81.5,12.1c-0.7,0-1.3-0.1-1.9-0.3s-1-0.6-1.4-1c-0.4-0.4-0.7-1-0.9-1.6C77.1,8.5,77,7.8,77,7
		c0-0.8,0.1-1.5,0.4-2.2c0.2-0.6,0.6-1.2,1-1.6c0.4-0.4,0.9-0.8,1.5-1C80.4,2,81,1.9,81.6,1.9c0.4,0,0.8,0,1.1,0.1
		c0.3,0.1,0.6,0.1,0.8,0.2c0.2,0.1,0.4,0.1,0.6,0.2c0.1,0.1,0.3,0.1,0.3,0.2L84,3.7c-0.1-0.1-0.2-0.1-0.4-0.2
		c-0.2-0.1-0.3-0.1-0.5-0.2c-0.2-0.1-0.4-0.1-0.7-0.2c-0.2,0-0.5-0.1-0.7-0.1c-0.5,0-1,0.1-1.4,0.3c-0.4,0.2-0.8,0.4-1.1,0.8
		c-0.3,0.3-0.5,0.7-0.7,1.2c-0.2,0.5-0.2,1-0.2,1.6c0,0.6,0.1,1.1,0.2,1.6c0.1,0.5,0.3,0.9,0.6,1.2s0.6,0.6,1,0.8
		c0.4,0.2,0.9,0.3,1.4,0.3c0.6,0,1.1-0.1,1.6-0.2c0.4-0.1,0.7-0.2,0.9-0.4l0.3,1.1c-0.1,0-0.2,0.1-0.3,0.2c-0.2,0.1-0.4,0.1-0.6,0.2
		c-0.3,0.1-0.5,0.1-0.9,0.2C82.3,12,81.9,12.1,81.5,12.1z"/>
	<path class="st1" d="M91.5,7.8C91.6,8,91.8,8.2,92,8.5c0.2,0.3,0.5,0.6,0.7,1c0.2,0.4,0.5,0.8,0.7,1.2s0.4,0.8,0.6,1.2h-1.5
		c-0.2-0.4-0.4-0.7-0.6-1.1c-0.2-0.4-0.4-0.7-0.7-1c-0.2-0.3-0.4-0.6-0.7-0.9c-0.2-0.3-0.4-0.5-0.6-0.8c-0.1,0-0.2,0-0.4,0
		s-0.3,0-0.4,0h-1.2v3.8h-1.4V2.3c0.4-0.1,0.8-0.2,1.3-0.2c0.5,0,0.9,0,1.3,0c1.4,0,2.4,0.3,3.1,0.8c0.7,0.5,1.1,1.3,1.1,2.3
		c0,0.6-0.2,1.2-0.5,1.7S92.1,7.6,91.5,7.8z M89.4,3.2c-0.6,0-1,0-1.3,0v3.7h1c0.5,0,0.9,0,1.3-0.1c0.4,0,0.7-0.1,0.9-0.3
		s0.5-0.3,0.6-0.6c0.1-0.2,0.2-0.6,0.2-0.9c0-0.4-0.1-0.7-0.2-0.9c-0.1-0.2-0.3-0.4-0.6-0.6c-0.2-0.1-0.5-0.2-0.8-0.3
		C90.1,3.3,89.8,3.2,89.4,3.2z"/>
</g>
<g class="st0">
	<path class="st1" d="M96.2,11.9V2.1h5.9v1.2h-4.6v2.9h4.1v1.1h-4.1v3.4h4.9v1.2H96.2z"/>
</g>
<g class="st0">
	<path class="st1" d="M111.6,11.9c-0.2-0.4-0.3-0.8-0.4-1.2c-0.1-0.4-0.3-0.8-0.4-1.2h-4.4l-0.9,2.5h-1.4c0.4-1,0.7-2,1-2.8
		c0.3-0.9,0.6-1.7,1-2.5s0.6-1.5,0.9-2.2c0.3-0.7,0.6-1.4,1-2.1h1.2c0.3,0.7,0.7,1.4,1,2.1c0.3,0.7,0.6,1.5,0.9,2.2s0.6,1.6,1,2.5
		c0.3,0.9,0.7,1.8,1,2.8H111.6z M110.4,8.3c-0.3-0.8-0.6-1.6-0.9-2.4s-0.6-1.5-0.9-2.2c-0.3,0.7-0.6,1.4-0.9,2.2
		c-0.3,0.8-0.6,1.5-0.9,2.4H110.4z"/>
</g>
<g class="st0">
	<path class="st1" d="M120.7,2.1v1.2h-3.1v8.5h-1.4V3.3h-3.1V2.1H120.7z"/>
	<path class="st1" d="M122.9,11.9V2.1h5.9v1.2h-4.6v2.9h4.1v1.1h-4.1v3.4h4.9v1.2H122.9z"/>
</g>
<g class="st0">
	<path class="st1" d="M135.5,11.9V2.1h5.9v1.2h-4.5v2.9h4v1.1h-4v4.5H135.5z"/>
</g>
<g class="st0">
	<path class="st1" d="M143.1,7c0-0.8,0.1-1.6,0.4-2.2s0.6-1.2,1-1.6s0.9-0.7,1.5-1c0.6-0.2,1.2-0.3,1.8-0.3c0.6,0,1.2,0.1,1.8,0.3
		c0.6,0.2,1,0.5,1.5,1s0.8,1,1,1.6c0.2,0.6,0.4,1.4,0.4,2.2c0,0.8-0.1,1.6-0.4,2.2c-0.2,0.6-0.6,1.2-1,1.6c-0.4,0.4-0.9,0.7-1.5,1
		c-0.6,0.2-1.1,0.3-1.8,0.3c-0.6,0-1.2-0.1-1.8-0.3c-0.6-0.2-1.1-0.5-1.5-1c-0.4-0.4-0.8-1-1-1.6S143.1,7.8,143.1,7z M144.6,7
		c0,0.6,0.1,1.1,0.2,1.6s0.4,0.9,0.6,1.2s0.6,0.6,1,0.8s0.8,0.3,1.3,0.3c0.5,0,0.9-0.1,1.3-0.3c0.4-0.2,0.7-0.4,1-0.8
		s0.5-0.7,0.6-1.2c0.1-0.5,0.2-1,0.2-1.6c0-0.6-0.1-1.1-0.2-1.6c-0.1-0.5-0.4-0.9-0.6-1.2c-0.3-0.3-0.6-0.6-1-0.8
		c-0.4-0.2-0.8-0.3-1.3-0.3c-0.5,0-0.9,0.1-1.3,0.3s-0.7,0.4-1,0.8c-0.3,0.3-0.5,0.7-0.6,1.2S144.6,6.4,144.6,7z"/>
	<path class="st1" d="M159.9,7.8c0.1,0.2,0.3,0.4,0.6,0.7c0.2,0.3,0.5,0.6,0.7,1c0.2,0.4,0.5,0.8,0.7,1.2c0.2,0.4,0.4,0.8,0.6,1.2
		H161c-0.2-0.4-0.4-0.7-0.6-1.1c-0.2-0.4-0.4-0.7-0.7-1c-0.2-0.3-0.4-0.6-0.7-0.9c-0.2-0.3-0.4-0.5-0.6-0.8c-0.1,0-0.2,0-0.4,0
		s-0.3,0-0.4,0h-1.2v3.8h-1.4V2.3c0.4-0.1,0.8-0.2,1.3-0.2c0.5,0,0.9,0,1.3,0c1.4,0,2.4,0.3,3.1,0.8c0.7,0.5,1.1,1.3,1.1,2.3
		c0,0.6-0.2,1.2-0.5,1.7C161,7.2,160.5,7.6,159.9,7.8z M157.8,3.2c-0.6,0-1,0-1.3,0v3.7h1c0.5,0,0.9,0,1.3-0.1
		c0.4,0,0.7-0.1,0.9-0.3s0.5-0.3,0.6-0.6c0.1-0.2,0.2-0.6,0.2-0.9c0-0.4-0.1-0.7-0.2-0.9c-0.1-0.2-0.3-0.4-0.6-0.6
		c-0.2-0.1-0.5-0.2-0.8-0.3C158.5,3.3,158.2,3.2,157.8,3.2z"/>
</g>
<g class="st0">
	<path class="st1" d="M20.3,40.7h-3.8l-1.1-7.3l-4.7,8l-4.7-8l-1.1,7.3H1.1l2.7-17.4l6.9,10.2l6.9-10.2L20.3,40.7z"/>
</g>
<g class="st0">
	<path class="st1" d="M23,32.3c0-1.3,0.2-2.4,0.7-3.6c0.5-1.1,1.1-2.1,1.9-2.9c0.8-0.8,1.8-1.5,2.9-1.9c1.1-0.5,2.3-0.7,3.5-0.7
		c1.3,0,2.4,0.2,3.5,0.7c1.1,0.5,2.1,1.1,2.9,1.9c0.8,0.8,1.5,1.8,1.9,2.9c0.5,1.1,0.7,2.3,0.7,3.6c0,1.2-0.2,2.4-0.7,3.5
		c-0.5,1.1-1.1,2.1-1.9,2.9c-0.8,0.8-1.8,1.5-2.9,1.9c-1.1,0.5-2.3,0.7-3.5,0.7c-1.2,0-2.4-0.2-3.5-0.7c-1.1-0.5-2-1.1-2.9-1.9
		c-0.8-0.8-1.5-1.8-1.9-2.9C23.2,34.7,23,33.5,23,32.3z M26.7,32.3c0,0.7,0.1,1.4,0.4,2.1c0.3,0.6,0.7,1.2,1.1,1.7
		c0.5,0.5,1,0.8,1.7,1.1c0.6,0.3,1.3,0.4,2,0.4c0.7,0,1.4-0.1,2.1-0.4s1.2-0.6,1.7-1.1c0.5-0.5,0.9-1,1.1-1.7
		c0.3-0.6,0.4-1.3,0.4-2.1s-0.1-1.4-0.4-2.1c-0.3-0.6-0.6-1.2-1.1-1.7c-0.5-0.5-1-0.9-1.7-1.1s-1.3-0.4-2.1-0.4
		c-0.7,0-1.4,0.1-2,0.4c-0.6,0.3-1.2,0.7-1.7,1.1s-0.9,1-1.1,1.7C26.8,30.8,26.7,31.5,26.7,32.3z"/>
</g>
<g class="st0">
	<path class="st1" d="M58.1,41.3l-10.1-9.2v8.6h-3.7V23.2l10.1,9.2v-8.5h3.7V41.3z"/>
	<path class="st1" d="M61.4,32.3c0-1.3,0.2-2.4,0.7-3.6c0.5-1.1,1.1-2.1,1.9-2.9c0.8-0.8,1.8-1.5,2.9-1.9c1.1-0.5,2.3-0.7,3.5-0.7
		c1.3,0,2.4,0.2,3.5,0.7c1.1,0.5,2.1,1.1,2.9,1.9c0.8,0.8,1.5,1.8,1.9,2.9c0.5,1.1,0.7,2.3,0.7,3.6c0,1.2-0.2,2.4-0.7,3.5
		c-0.5,1.1-1.1,2.1-1.9,2.9c-0.8,0.8-1.8,1.5-2.9,1.9c-1.1,0.5-2.3,0.7-3.5,0.7c-1.2,0-2.4-0.2-3.5-0.7c-1.1-0.5-2-1.1-2.9-1.9
		c-0.8-0.8-1.5-1.8-1.9-2.9C61.6,34.7,61.4,33.5,61.4,32.3z M65.2,32.3c0,0.7,0.1,1.4,0.4,2.1c0.3,0.6,0.7,1.2,1.1,1.7
		c0.5,0.5,1,0.8,1.7,1.1c0.6,0.3,1.3,0.4,2,0.4c0.7,0,1.4-0.1,2.1-0.4s1.2-0.6,1.7-1.1c0.5-0.5,0.9-1,1.1-1.7
		c0.3-0.6,0.4-1.3,0.4-2.1s-0.1-1.4-0.4-2.1c-0.3-0.6-0.6-1.2-1.1-1.7c-0.5-0.5-1-0.9-1.7-1.1s-1.3-0.4-2.1-0.4
		c-0.7,0-1.4,0.1-2,0.4c-0.6,0.3-1.2,0.7-1.7,1.1s-0.9,1-1.1,1.7C65.3,30.8,65.2,31.5,65.2,32.3z"/>
	<path class="st1" d="M86.6,40.7h-3.7V23.9h10.8v3.5h-7.1v3h5.9v3.5h-5.9V40.7z"/>
</g>
<g class="st0">
	<path class="st1" d="M97.1,32.3c0-1.3,0.2-2.4,0.7-3.6c0.5-1.1,1.1-2.1,1.9-2.9c0.8-0.8,1.8-1.5,2.9-1.9c1.1-0.5,2.3-0.7,3.5-0.7
		c1.3,0,2.4,0.2,3.5,0.7c1.1,0.5,2.1,1.1,2.9,1.9c0.8,0.8,1.5,1.8,1.9,2.9c0.5,1.1,0.7,2.3,0.7,3.6c0,1.2-0.2,2.4-0.7,3.5
		c-0.5,1.1-1.1,2.1-1.9,2.9c-0.8,0.8-1.8,1.5-2.9,1.9c-1.1,0.5-2.3,0.7-3.5,0.7c-1.2,0-2.4-0.2-3.5-0.7c-1.1-0.5-2-1.1-2.9-1.9
		c-0.8-0.8-1.5-1.8-1.9-2.9C97.3,34.7,97.1,33.5,97.1,32.3z M100.8,32.3c0,0.7,0.1,1.4,0.4,2.1c0.3,0.6,0.7,1.2,1.1,1.7
		c0.5,0.5,1,0.8,1.7,1.1c0.6,0.3,1.3,0.4,2,0.4c0.7,0,1.4-0.1,2.1-0.4c0.7-0.3,1.2-0.6,1.7-1.1c0.5-0.5,0.9-1,1.1-1.7
		c0.3-0.6,0.4-1.3,0.4-2.1s-0.1-1.4-0.4-2.1s-0.6-1.2-1.1-1.7s-1-0.9-1.7-1.1c-0.6-0.3-1.3-0.4-2.1-0.4c-0.7,0-1.4,0.1-2,0.4
		c-0.6,0.3-1.2,0.7-1.7,1.1c-0.5,0.5-0.8,1-1.1,1.7C101,30.8,100.8,31.5,100.8,32.3z"/>
</g>
<g class="st0">
	<path class="st1" d="M132.2,41.3L122,32.1v8.6h-3.7V23.2l10.1,9.2v-8.5h3.7V41.3z"/>
	<path class="st1" d="M142.8,27.6v13.1H139V27.6h-3.5v-3.7h10.8v3.7H142.8z"/>
	<path class="st1" d="M149.7,38.9c0,0,0.1-0.1,0.3-0.4c0.2-0.3,0.5-0.7,0.8-1c0.3-0.4,0.7-0.9,1.2-1.5c0.4,0.3,0.9,0.6,1.3,0.8
		c0.4,0.2,0.8,0.4,1.2,0.6s0.9,0.2,1.3,0.2c0.2,0,0.5,0,0.7-0.1s0.5-0.2,0.7-0.3s0.4-0.3,0.5-0.5s0.2-0.4,0.2-0.6
		c0-0.5-0.3-0.9-0.8-1.3c-0.6-0.4-1.2-0.7-2.1-1c-0.5-0.2-1-0.5-1.6-0.8c-0.6-0.3-1.1-0.7-1.5-1.1s-0.8-0.9-1.1-1.5
		s-0.4-1.2-0.4-1.9c0-0.7,0.1-1.3,0.3-2c0.2-0.6,0.6-1.2,1-1.7c0.5-0.5,1-0.9,1.7-1.1c0.7-0.3,1.5-0.4,2.4-0.4c0.7,0,1.4,0.1,2,0.3
		c0.6,0.2,1.1,0.4,1.6,0.6c0.5,0.2,0.9,0.5,1.2,0.8c0.4,0.3,0.6,0.5,0.9,0.7l-2.2,3c0,0-0.2-0.1-0.4-0.3c-0.2-0.2-0.5-0.3-0.9-0.5
		s-0.7-0.4-1.1-0.5c-0.4-0.2-0.8-0.2-1.3-0.2c-0.4,0-0.8,0.1-1.1,0.3c-0.3,0.2-0.5,0.5-0.5,0.8c0,0.4,0.2,0.9,0.6,1.2
		c0.4,0.4,1.1,0.7,2.1,1.1c0.5,0.2,1,0.4,1.5,0.7c0.6,0.3,1.1,0.6,1.6,1.1c0.5,0.4,0.9,0.9,1.2,1.5c0.3,0.6,0.5,1.3,0.5,2.1
		c0,0.6-0.1,1.3-0.4,1.9s-0.6,1.2-1.1,1.7c-0.5,0.5-1.1,0.9-1.8,1.3c-0.7,0.3-1.5,0.5-2.4,0.5c-0.8,0-1.5-0.1-2.2-0.3
		s-1.4-0.5-1.9-0.7c-0.6-0.3-1-0.6-1.4-0.8C150.1,39.2,149.8,39,149.7,38.9z"/>
</g>
</svg>
